<?xml version="1.0" encoding="UTF-8" standalone="no"?>
<svg
   xmlns:dc="http://purl.org/dc/elements/1.1/"
   xmlns:cc="http://creativecommons.org/ns#"
   xmlns:rdf="http://www.w3.org/1999/02/22-rdf-syntax-ns#"
   xmlns:svg="http://www.w3.org/2000/svg"
   xmlns="http://www.w3.org/2000/svg"
   xmlns:sodipodi="http://sodipodi.sourceforge.net/DTD/sodipodi-0.dtd"
   xmlns:inkscape="http://www.inkscape.org/namespaces/inkscape"
   width="220"
   height="270"
   viewBox="0 0 58.208332 71.437504"
   version="1.1"
   id="svg8"
   inkscape:version="1.0.2-2 (e86c870879, 2021-01-15)"
   sodipodi:docname="detalhe_contato.svg">
  <defs
     id="defs2" />
  <sodipodi:namedview
     id="base"
     pagecolor="#ffffff"
     bordercolor="#666666"
     borderopacity="1.0"
     inkscape:pageopacity="0.0"
     inkscape:pageshadow="2"
     inkscape:zoom="0.25"
     inkscape:cx="1096.0264"
     inkscape:cy="922.41723"
     inkscape:document-units="mm"
     inkscape:current-layer="layer1"
     inkscape:document-rotation="0"
     showgrid="false"
     inkscape:window-width="1350"
     inkscape:window-height="728"
     inkscape:window-x="0"
     inkscape:window-y="0"
     inkscape:window-maximized="0"
     units="px" />
  <metadata
     id="metadata5">
    <rdf:RDF>
      <cc:Work
         rdf:about="">
        <dc:format>image/svg+xml</dc:format>
        <dc:type
           rdf:resource="http://purl.org/dc/dcmitype/StillImage" />
        <dc:title />
      </cc:Work>
    </rdf:RDF>
  </metadata>
  <g
     inkscape:label="Layer 1"
     inkscape:groupmode="layer"
     id="layer1">
    <path
       style="fill:#e7dbd6;fill-opacity:1;stroke:none;stroke-width:0.264583px;stroke-linecap:butt;stroke-linejoin:miter;stroke-opacity:1"
       d="m 7.2314532,69.494603 c 2.7673371,2.3654 6.2619618,-1.16383 5.6794768,-4.74404 -0.383999,-1.50004 -5.0970888,-4.05712 -4.6103988,-6.5481 0.226957,-0.89751 0.04478,-2.745824 2.0045218,-2.806334 3.488845,-0.60661 2.443404,-3.99041 1.336347,-5.81311 -4.0968108,-5.67724 -10.4903278,-7.24969 -7.1494598,-10.3567 0,0 1.782383,-1.656 4.810852,-0.4009 1.2258708,0.4079 3.5623148,0.0771 1.8708868,-5.47903 -1.5428247,-4.543581 -3.8601518,-11.659631 -0.200453,-13.630742 2.040332,-1.454765 4.11787,3.56267 6.214016,-0.400905 0.688793,-1.623067 -0.161194,-14.6682416 9.087165,-6.681737 3.034208,2.022807 4.749768,-1.555248 5.813108,-3.2072344 2.79496,-6.1098102 5.0777,-3.5117922 7.34992,-0.7349912 2.87798,3.5399266 3.96163,3.6130936 6.41446,0.9354419 3.4692,-4.0114459 5.39152,-6.2996709 7.2831,-1.2027109 0.6997,2.1891566 3.90831,2.0968406 4.40995,-1.737254 -0.0546,-1.997546 -2.71483,-5.096181 -4.81086,-5.211755 -1.51033,-0.121704 -3.0445,-0.374512 -4.20949,1.403165 -1.55645,1.904123 -2.96097,3.973981 -6.41447,3.80859 -2.46273,0.220197 -5.88545,-4.971725 -7.61718,-4.409946 -2.35031,-0.04479 -3.41782,6.265422 -7.21628,7.0158242 C 24.681389,7.2080514 22.533143,6.3314264 20.728563,6.7530734 16.371502,8.8884314 14.330129,11.756475 15.516809,17.243403 8.4687192,15.655802 3.6909402,20.268634 5.5610182,27.800551 c 1.958021,5.748198 4.3442061,7.221568 -3.140416,10.490328 -3.582607,2.93699 -1.51982097,4.70596 -0.133635,6.61492 2.104507,2.53272 4.65326,4.55885 5.245164,6.64833 0.751465,2.4219 -1.060445,2.51429 -1.904295,3.64155 -1.390234,1.346634 -0.889659,4.989704 0.534539,5.545844 8.2049048,3.98776 -0.530122,6.66685 1.069078,8.75308 z"
       id="path24"
       sodipodi:nodetypes="cccccccccccccccccccccccccccccc" />
    <path
       style="fill:#e7dbd6;fill-opacity:1;stroke:none;stroke-width:0.264583px;stroke-linecap:butt;stroke-linejoin:miter;stroke-opacity:1"
       d="m 11.374131,57.467473 c 0.811024,2.32849 3.299648,4.05238 4.242905,2.93996 1.952548,-2.63896 -1.967837,-5.147454 -2.539061,-4.476764 -0.673141,0.680104 0.176274,2.316614 0.935443,2.271794"
       id="path26"
       sodipodi:nodetypes="cccc" />
    <path
       style="fill:#e7dbd6;fill-opacity:1;stroke:none;stroke-width:0.264583px;stroke-linecap:butt;stroke-linejoin:miter;stroke-opacity:1"
       d="m 9.2693832,44.434319 c 1.4518298,1.31811 4.1005208,2.95884 5.0447118,1.36975 1.552976,-2.89008 -3.576935,-5.75719 -5.0113028,-4.57699 -0.719775,1.72224 0.3193351,2.42023 2.5390598,2.80633"
       id="path39"
       sodipodi:nodetypes="cccc" />
    <path
       style="fill:#e7dbd6;fill-opacity:1;stroke:none;stroke-width:0.264583px;stroke-linecap:butt;stroke-linejoin:miter;stroke-opacity:1"
       d="m 14.581364,27.266011 c 0.929482,0.882064 3.019659,2.286152 3.708365,1.603618 1.570903,-1.49464 -1.82254,-5.937228 -4.042452,-5.078121 -1.86663,1.105688 1.421607,4.159841 2.939965,3.173825"
       id="path41"
       sodipodi:nodetypes="cccc" />
    <path
       style="fill:#e7dbd6;fill-opacity:1;stroke:none;stroke-width:0.264583px;stroke-linecap:butt;stroke-linejoin:miter;stroke-opacity:1"
       d="m 21.697417,15.940466 c -0.07422,1.778757 2.525034,4.410526 4.142675,3.240643 0.745951,-0.60036 -0.684291,-5.985478 -2.806328,-5.245166 0,0 -2.072458,1.556869 1.23612,3.374279"
       id="path43"
       sodipodi:nodetypes="cccc" />
    <path
       style="fill:#e7dbd6;fill-opacity:1;stroke:none;stroke-width:0.264583px;stroke-linecap:butt;stroke-linejoin:miter;stroke-opacity:1"
       d="m 34.523125,11.92176 c 1.31978,2.769204 2.59352,3.190851 3.85063,2.763951 1.78255,-1.139674 -0.35809,-6.0415176 -1.96075,-5.6932674 -2.3287,0.6394867 -0.53801,4.3420774 0.21261,3.9215044"
       id="path45"
       sodipodi:nodetypes="cccc" />
    <path
       style="fill:#e7dbd6;fill-opacity:1;stroke:none;stroke-width:0.264583px;stroke-linecap:butt;stroke-linejoin:miter;stroke-opacity:1"
       d="m 49.500435,10.527971 c 0.10923,1.591045 0.40002,4.257224 2.03162,4.110494 2.07851,-0.08199 1.83196,-3.707916 0.99219,-4.9609387 -0.65133,-0.5271317 -3.42832,-0.3395427 -1.11031,2.5985857"
       id="path47"
       sodipodi:nodetypes="cccc" />
  </g>
</svg>
