<?xml version="1.0" encoding="UTF-8" standalone="no"?>
<svg
   xmlns:dc="http://purl.org/dc/elements/1.1/"
   xmlns:cc="http://creativecommons.org/ns#"
   xmlns:rdf="http://www.w3.org/1999/02/22-rdf-syntax-ns#"
   xmlns:svg="http://www.w3.org/2000/svg"
   xmlns="http://www.w3.org/2000/svg"
   xmlns:sodipodi="http://sodipodi.sourceforge.net/DTD/sodipodi-0.dtd"
   xmlns:inkscape="http://www.inkscape.org/namespaces/inkscape"
   width="210"
   height="200"
   viewBox="0 0 55.562499 52.916671"
   version="1.1"
   id="svg8"
   inkscape:version="1.0.2-2 (e86c870879, 2021-01-15)"
   sodipodi:docname="detalhe_promos.svg">
  <defs
     id="defs2" />
  <sodipodi:namedview
     id="base"
     pagecolor="#ffffff"
     bordercolor="#666666"
     borderopacity="1.0"
     inkscape:pageopacity="0.0"
     inkscape:pageshadow="2"
     inkscape:zoom="0.125"
     inkscape:cx="1585.3701"
     inkscape:cy="756.72878"
     inkscape:document-units="mm"
     inkscape:current-layer="layer1"
     inkscape:document-rotation="0"
     showgrid="false"
     inkscape:window-width="1350"
     inkscape:window-height="728"
     inkscape:window-x="0"
     inkscape:window-y="0"
     inkscape:window-maximized="0"
     units="px"
     inkscape:snap-global="false" />
  <metadata
     id="metadata5">
    <rdf:RDF>
      <cc:Work
         rdf:about="">
        <dc:format>image/svg+xml</dc:format>
        <dc:type
           rdf:resource="http://purl.org/dc/dcmitype/StillImage" />
        <dc:title />
      </cc:Work>
    </rdf:RDF>
  </metadata>
  <g
     inkscape:label="Layer 1"
     inkscape:groupmode="layer"
     id="layer1">
    <path
       style="fill:#8a2115;fill-opacity:1;stroke:none;stroke-width:0.264583px;stroke-linecap:butt;stroke-linejoin:miter;stroke-opacity:1"
       d="m 21.328108,10.599853 c -7.88878,2.30714 -10.600095,8.54472 -10.664056,16.08963 0.747704,5.60867 1.700043,10.46604 9.783406,14.11854 3.80998,1.84449 12.77283,2.79092 15.47356,1.59691 6.54183,-2.57358 13.99053,-12.10966 4.67722,-24.69571 -5.58429,-6.56524 -12.19407,-8.0029903 -19.27013,-7.10937 z"
       id="path1115"
       sodipodi:nodetypes="cccccc" />
    <path
       style="fill:#8a2115;fill-opacity:1;stroke:none;stroke-width:0.264583px;stroke-linecap:butt;stroke-linejoin:miter;stroke-opacity:1"
       d="m 19.784628,43.480684 c 1.27138,-0.0655 1.482,4.09556 -0.65481,3.92887 -1.889892,-0.36888 -1.51133,-3.99117 0.65481,-3.92887 z"
       id="path1123"
       sodipodi:nodetypes="ccc" />
    <path
       style="fill:#8a2115;fill-opacity:1;stroke:none;stroke-width:0.264583px;stroke-linecap:butt;stroke-linejoin:miter;stroke-opacity:1"
       d="m 10.243102,35.997143 c -1.0447597,-2.17527 -4.9248247,0.87037 -4.1627207,2.19829 1.077553,1.00361 4.7099997,0.0449 4.1627207,-2.19829 z"
       id="path1125"
       sodipodi:nodetypes="ccc" />
    <path
       style="fill:#8a2115;fill-opacity:1;stroke:none;stroke-width:0.264583px;stroke-linecap:butt;stroke-linejoin:miter;stroke-opacity:1"
       d="m 34.424309,46.146702 c 2.13968,0.59116 1.53078,3.98354 0.5145,4.20949 -2.94936,0.27576 -1.35324,-4.30165 -0.5145,-4.20949 z"
       id="path1127"
       sodipodi:nodetypes="ccc" />
    <path
       style="fill:#8a2115;fill-opacity:1;stroke:none;stroke-width:0.264583px;stroke-linecap:butt;stroke-linejoin:miter;stroke-opacity:1"
       d="m 6.8287363,28.653913 c 0.284434,2.1416 -4.528113,3.09563 -4.583673,1.02899 0.667995,-3.11269 3.783386,-1.97978 4.583673,-1.02899 z"
       id="path1129"
       sodipodi:nodetypes="ccc" />
    <path
       style="fill:#8a2115;fill-opacity:1;stroke:none;stroke-width:0.264583px;stroke-linecap:butt;stroke-linejoin:miter;stroke-opacity:1"
       d="m 7.0158233,21.076823 c -0.502053,2.3638 -4.938361,-0.37527 -4.58367,-1.49671 1.190274,-1.93957 4.888378,-0.42407 4.58367,1.49671 z"
       id="path1131"
       sodipodi:nodetypes="ccc" />
    <path
       style="fill:#8a2115;fill-opacity:1;stroke:none;stroke-width:0.264583px;stroke-linecap:butt;stroke-linejoin:miter;stroke-opacity:1"
       d="M 10.009242,12.003023 C 8.1336783,13.701493 4.5727963,9.9279527 5.9868353,9.0096027 c 1.77075,-1.11121 5.5589487,0.9938103 4.0224067,2.9934203 z"
       id="path1133"
       sodipodi:nodetypes="ccc" />
    <path
       style="fill:#8a2115;fill-opacity:1;stroke:none;stroke-width:0.264583px;stroke-linecap:butt;stroke-linejoin:miter;stroke-opacity:1"
       d="m 19.924938,8.2612427 c 1.87635,-0.3587 1.82651,-5.96112 -1.02898,-5.79975 -1.54968,0.28306 -0.74442,5.02648 1.02898,5.79975 z"
       id="path1135"
       sodipodi:nodetypes="ccc" />
    <path
       style="fill:#8a2115;fill-opacity:1;stroke:none;stroke-width:0.264583px;stroke-linecap:butt;stroke-linejoin:miter;stroke-opacity:1"
       d="m 30.495448,8.0741527 c -1.54943,-1.11948 -0.20041,-6.6180201 1.6838,-4.20949 1.39326,2.03031 0.75178,3.8372 -1.6838,4.20949 z"
       id="path1137"
       sodipodi:nodetypes="ccc" />
    <path
       style="fill:#8a2115;fill-opacity:1;stroke:none;stroke-width:0.264583px;stroke-linecap:butt;stroke-linejoin:miter;stroke-opacity:1"
       d="m 41.907858,14.060993 c 0.53581,-4.2556203 3.57629,-4.3844603 3.83532,-3.64823 0.44085,0.72321 -1.07543,5.24519 -3.83532,3.64823 z"
       id="path1139"
       sodipodi:nodetypes="ccc" />
    <path
       style="fill:#8a2115;fill-opacity:1;stroke:none;stroke-width:0.264583px;stroke-linecap:butt;stroke-linejoin:miter;stroke-opacity:1"
       d="m 44.714188,42.966193 c 1.03946,-0.88335 4.94293,1.66322 3.55469,3.92886 -2.02183,2.3902 -5.2261,-2.56313 -3.55469,-3.92886 z"
       id="path1141"
       sodipodi:nodetypes="ccc" />
    <path
       style="fill:#8a2115;fill-opacity:1;stroke:none;stroke-width:0.264583px;stroke-linecap:butt;stroke-linejoin:miter;stroke-opacity:1"
       d="m 49.391408,33.798853 c 0.50937,0.68819 4.51941,2.44163 5.05139,0.0935 0.70792,-3.4016 -4.82627,-1.65562 -5.05139,-0.0935 z"
       id="path1143"
       sodipodi:nodetypes="ccc" />
    <path
       style="fill:#8a2115;fill-opacity:1;stroke:none;stroke-width:0.264583px;stroke-linecap:butt;stroke-linejoin:miter;stroke-opacity:1"
       d="m 47.894698,22.479983 c 0.14811,-1.32889 3.89768,-3.5404 5.14494,-2.05797 0.90272,3.03244 -4.72245,4.02236 -5.14494,2.05797 z"
       id="path1145"
       sodipodi:nodetypes="ccc" />
  </g>
</svg>
