<?xml version="1.0" encoding="UTF-8" standalone="no"?>
<svg
   xmlns:dc="http://purl.org/dc/elements/1.1/"
   xmlns:cc="http://creativecommons.org/ns#"
   xmlns:rdf="http://www.w3.org/1999/02/22-rdf-syntax-ns#"
   xmlns:svg="http://www.w3.org/2000/svg"
   xmlns="http://www.w3.org/2000/svg"
   xmlns:sodipodi="http://sodipodi.sourceforge.net/DTD/sodipodi-0.dtd"
   xmlns:inkscape="http://www.inkscape.org/namespaces/inkscape"
   width="135"
   height="150"
   viewBox="0 0 35.718749 39.687504"
   version="1.1"
   id="svg8"
   sodipodi:docname="detalhe_novidades2_inverse.svg"
   inkscape:version="1.0.2-2 (e86c870879, 2021-01-15)">
  <sodipodi:namedview
     pagecolor="#ffffff"
     bordercolor="#666666"
     borderopacity="1"
     objecttolerance="10"
     gridtolerance="10"
     guidetolerance="10"
     inkscape:pageopacity="0"
     inkscape:pageshadow="2"
     inkscape:window-width="1366"
     inkscape:window-height="705"
     id="namedview40"
     showgrid="false"
     inkscape:zoom="2.5361563"
     inkscape:cx="141.81585"
     inkscape:cy="98.187365"
     inkscape:window-x="-8"
     inkscape:window-y="-8"
     inkscape:window-maximized="1"
     inkscape:current-layer="layer1" />
  <defs
     id="defs2" />
  <metadata
     id="metadata5">
    <rdf:RDF>
      <cc:Work
         rdf:about="">
        <dc:format>image/svg+xml</dc:format>
        <dc:type
           rdf:resource="http://purl.org/dc/dcmitype/StillImage" />
        <dc:title />
      </cc:Work>
    </rdf:RDF>
  </metadata>
  <g
     id="layer1"
     transform="translate(0,1.6691926)">
    <path
       style="fill:none;fill-opacity:1;stroke:#7f991f;stroke-width:0.79375;stroke-linecap:butt;stroke-linejoin:miter;stroke-miterlimit:4;stroke-dasharray:none;stroke-opacity:1"
       d="m 34.344387,-0.12556517 c 0.64051,9.33932957 -5.60872,11.40615917 -11.50594,13.84455917 -9.43507,4.08896 -11.50993,8.44777 -13.2832996,12.90912"
       id="path854" />
    <path
       style="fill:none;fill-opacity:1;stroke:#7f991f;stroke-width:0.79375;stroke-linecap:butt;stroke-linejoin:miter;stroke-miterlimit:4;stroke-dasharray:none;stroke-opacity:1"
       d="m 9.6019274,26.581344 c 1.0733096,4.14984 -2.65853,6.31566 -5.98683,9.12057 -0.40561,-8.75218 2.95957,-8.956 5.98683,-9.12057 z"
       id="path856" />
    <path
       style="fill:none;fill-opacity:1;stroke:#7f991f;stroke-width:0.79375;stroke-linecap:butt;stroke-linejoin:miter;stroke-miterlimit:4;stroke-dasharray:none;stroke-opacity:1"
       d="m 10.958317,23.447604 c -7.7143896,-3.37747 -9.2074496,2.81755 -9.4479796,4.630441 6.05635,-2.857781 7.55977,-1.555611 9.4479796,-4.630441 z"
       id="path858" />
    <path
       style="fill:none;fill-opacity:1;stroke:#7f991f;stroke-width:0.79375;stroke-linecap:butt;stroke-linejoin:miter;stroke-miterlimit:4;stroke-dasharray:none;stroke-opacity:1"
       d="m 11.051867,23.400834 c 5.171,4.437771 3.31955,7.79516 2.24505,11.27209 -3.6390896,-5.56408 -3.5658396,-8.80794 -2.24505,-11.27209 z"
       id="path860" />
    <path
       style="fill:none;fill-opacity:1;stroke:#7f991f;stroke-width:0.79375;stroke-linecap:butt;stroke-linejoin:miter;stroke-miterlimit:4;stroke-dasharray:none;stroke-opacity:1"
       d="m 15.541987,18.162344 c 6.39483,3.92801 2.1122,7.03685 1.63703,11.13178 -1.85056,-3.58329 -4.66606,-7.07243 -1.63703,-11.13178 z"
       id="path862" />
    <path
       style="fill:none;fill-opacity:1;stroke:#7f991f;stroke-width:0.79375;stroke-linecap:butt;stroke-linejoin:miter;stroke-miterlimit:4;stroke-dasharray:none;stroke-opacity:1"
       d="m 15.401677,17.788174 c -5.0602,-3.80935 -8.7219796,-4.31336 -11.0382296,-1.63703 3.21542,2.35944 6.4791396,4.53009 11.0382296,1.63703 z"
       id="path864" />
    <path
       style="fill:none;fill-opacity:1;stroke:#7f991f;stroke-width:0.79375;stroke-linecap:butt;stroke-linejoin:miter;stroke-miterlimit:4;stroke-dasharray:none;stroke-opacity:1"
       d="m 22.436397,13.790324 c -5.29029,1.99864 -8.14656,-0.80746 -10.5894,-5.1227196 3.83417,0.79868 8.33833,-2.1214296 10.5894,5.1227196 z"
       id="path866" />
    <path
       style="fill:none;fill-opacity:1;stroke:#7f991f;stroke-width:0.79375;stroke-linecap:butt;stroke-linejoin:miter;stroke-miterlimit:4;stroke-dasharray:none;stroke-opacity:1"
       d="m 22.698137,13.906084 c 6.25675,4.1235 5.629,7.65689 3.22726,11.03823 -3.17603,-3.39559 -4.65855,-7.02003 -3.22726,-11.03823 z"
       id="path868" />
    <path
       style="fill:none;fill-opacity:1;stroke:#7f991f;stroke-width:0.79375;stroke-linecap:butt;stroke-linejoin:miter;stroke-miterlimit:4;stroke-dasharray:none;stroke-opacity:1"
       d="m 30.151427,10.034374 c -5.09875,0.74415 -7.33921,-2.9392992 -9.51127,-7.0729792 4.19805,0.7355 9.12682,-0.098 9.51127,7.0729792 z"
       id="path870" />
    <path
       style="fill:none;fill-opacity:1;stroke:#7f991f;stroke-width:0.79375;stroke-linecap:butt;stroke-linejoin:miter;stroke-miterlimit:4;stroke-dasharray:none;stroke-opacity:1"
       d="m 30.275227,10.070764 c 6.42432,1.61329 4.13817,6.53423 3.13372,10.7576 -1.10763,-3.55644 -5.42718,-5.61399 -3.13372,-10.7576 z"
       id="path872" />
  </g>
</svg>
