<?xml version="1.0" encoding="UTF-8" standalone="no"?>
<svg
   xmlns:dc="http://purl.org/dc/elements/1.1/"
   xmlns:cc="http://creativecommons.org/ns#"
   xmlns:rdf="http://www.w3.org/1999/02/22-rdf-syntax-ns#"
   xmlns:svg="http://www.w3.org/2000/svg"
   xmlns="http://www.w3.org/2000/svg"
   width="141"
   height="109"
   viewBox="0 0 37.306249 28.839586"
   version="1.1"
   id="svg8">
  <defs
     id="defs2" />
  <metadata
     id="metadata5">
    <rdf:RDF>
      <cc:Work
         rdf:about="">
        <dc:format>image/svg+xml</dc:format>
        <dc:type
           rdf:resource="http://purl.org/dc/dcmitype/StillImage" />
        <dc:title></dc:title>
      </cc:Work>
    </rdf:RDF>
  </metadata>
  <g
     id="layer1">
    <path
       style="fill:#7f991f;fill-opacity:1;stroke:none;stroke-width:0.264583px;stroke-linecap:butt;stroke-linejoin:miter;stroke-opacity:1"
       d="M 0.24218849,1.57853 C 2.3828185,-1.329803 4.0878985,0.62559599 5.4806485,6.068658 c 0.58497,4.691174 6.9177195,-2.254931 9.6818495,7.623864 1.27161,2.647192 7.04878,2.279375 7.81095,1.964431 0.0352,-0.0124 0.0706,-0.02153 0.10612,-0.02752 1.53253,-0.258554 3.31193,5.340136 5.64687,7.323977 1.62554,0.354217 9.4388,1.646493 8.37221,5.191711 -1.43736,1.940086 -4.03171,-2.863613 -5.94008,-3.133735 -7.24374,0.74366 -4.50752,-1.139475 -8.10291,-7.339503 -9.3027,-0.169582 -7.60275,1.434596 -11.35431,-6.037337 C 5.4139685,7.691456 4.0673485,12.993196 3.6097785,5.367076 3.0728785,1.705098 -0.54546155,3.304957 0.24218849,1.57853 Z"
       id="path878" />
    <path
       style="fill:#7f991f;fill-opacity:1;stroke:none;stroke-width:0.264583px;stroke-linecap:butt;stroke-linejoin:miter;stroke-opacity:1"
       d="m 10.765908,0.17536499 c 1.0616,0.716588 -1.41232,3.17557901 5.23849,3.32082401 3.08695,0.05309 2.67924,5.421061 4.5951,6.808402 2.55904,1.853088 5.09244,-0.204694 7.00439,1.049322 0.77785,0.347642 2.21596,3.771975 2.36414,5.763534 0.13346,1.793677 3.83663,2.204216 3.38884,3.263494 -0.0654,0.86187 -3.88855,1.631151 -5.19171,-2.291836 -1.45214,-6.929648 -4.54195,-3.505181 -9.49476,-5.659432 -2.31087,-2.793783 -1.02704,-4.821741 -2.32072,-5.920544 -2.04265,-1.734934 -5.36576,-0.09258 -7.08046,-2.217813 -1.0713095,-2.942192 -0.0264,-4.37616501 1.49669,-4.11595101 z"
       id="path880" />
    <path
       style="fill:#7f991f;fill-opacity:1;stroke:none;stroke-width:0.264583px;stroke-linecap:butt;stroke-linejoin:miter;stroke-opacity:1"
       d="m 21.883888,2.956785 c 0.96993,0.319705 0.50457,2.293056 1.2237,3.439584 0.86291,0.950312 3.48774,-0.772316 4.53099,1.124479 0.0451,2.917218 -4.04262,1.679844 -5.68854,0.09922 -2.73374,-3.491349 -2.88801,-5.140222 -0.0661,-4.663283 z"
       id="path882" />
  </g>
</svg>
