<?xml version="1.0" encoding="UTF-8" standalone="no"?>
<svg
   xmlns:dc="http://purl.org/dc/elements/1.1/"
   xmlns:cc="http://creativecommons.org/ns#"
   xmlns:rdf="http://www.w3.org/1999/02/22-rdf-syntax-ns#"
   xmlns:svg="http://www.w3.org/2000/svg"
   xmlns="http://www.w3.org/2000/svg"
   xmlns:sodipodi="http://sodipodi.sourceforge.net/DTD/sodipodi-0.dtd"
   xmlns:inkscape="http://www.inkscape.org/namespaces/inkscape"
   width="135"
   height="150"
   viewBox="0 0 35.718749 39.687504"
   version="1.1"
   id="svg8"
   inkscape:version="1.0.2-2 (e86c870879, 2021-01-15)"
   sodipodi:docname="detalhe_novidades2.svg">
  <defs
     id="defs2" />
  <sodipodi:namedview
     id="base"
     pagecolor="#ffffff"
     bordercolor="#666666"
     borderopacity="1.0"
     inkscape:pageopacity="0.0"
     inkscape:pageshadow="2"
     inkscape:zoom="0.125"
     inkscape:cx="-136.91304"
     inkscape:cy="983.06163"
     inkscape:document-units="mm"
     inkscape:current-layer="layer1"
     inkscape:document-rotation="0"
     showgrid="false"
     inkscape:window-width="1350"
     inkscape:window-height="728"
     inkscape:window-x="0"
     inkscape:window-y="0"
     inkscape:window-maximized="0"
     units="px"
     inkscape:snap-global="false" />
  <metadata
     id="metadata5">
    <rdf:RDF>
      <cc:Work
         rdf:about="">
        <dc:format>image/svg+xml</dc:format>
        <dc:type
           rdf:resource="http://purl.org/dc/dcmitype/StillImage" />
        <dc:title />
      </cc:Work>
    </rdf:RDF>
  </metadata>
  <g
     inkscape:label="Layer 1"
     inkscape:groupmode="layer"
     id="layer1">
    <path
       style="fill:none;fill-opacity:1;stroke:#7f991f;stroke-width:0.79375;stroke-linecap:butt;stroke-linejoin:miter;stroke-miterlimit:4;stroke-dasharray:none;stroke-opacity:1"
       d="m 1.7111443,37.957048 c -0.64051,-9.33933 5.60872,-11.40616 11.5059397,-13.84456 9.43507,-4.08896 11.50993,-8.44777 13.2833,-12.90912"
       id="path854"
       sodipodi:nodetypes="ccc" />
    <path
       style="fill:none;fill-opacity:1;stroke:#7f991f;stroke-width:0.79375;stroke-linecap:butt;stroke-linejoin:miter;stroke-miterlimit:4;stroke-dasharray:none;stroke-opacity:1"
       d="m 26.453604,11.250138 c -1.07331,-4.14984 2.65853,-6.31566 5.98683,-9.12057 0.40561,8.75218 -2.95957,8.956 -5.98683,9.12057 z"
       id="path856"
       sodipodi:nodetypes="ccc" />
    <path
       style="fill:none;fill-opacity:1;stroke:#7f991f;stroke-width:0.79375;stroke-linecap:butt;stroke-linejoin:miter;stroke-miterlimit:4;stroke-dasharray:none;stroke-opacity:1"
       d="m 25.097214,14.383878 c 7.71439,3.37747 9.20745,-2.81755 9.44798,-4.6304403 -6.05635,2.8577803 -7.55977,1.5556103 -9.44798,4.6304403 z"
       id="path858"
       sodipodi:nodetypes="ccc" />
    <path
       style="fill:none;fill-opacity:1;stroke:#7f991f;stroke-width:0.79375;stroke-linecap:butt;stroke-linejoin:miter;stroke-miterlimit:4;stroke-dasharray:none;stroke-opacity:1"
       d="m 25.003664,14.430648 c -5.171,-4.4377703 -3.31955,-7.79516 -2.24505,-11.27209 3.63909,5.56408 3.56584,8.80794 2.24505,11.27209 z"
       id="path860"
       sodipodi:nodetypes="ccc" />
    <path
       style="fill:none;fill-opacity:1;stroke:#7f991f;stroke-width:0.79375;stroke-linecap:butt;stroke-linejoin:miter;stroke-miterlimit:4;stroke-dasharray:none;stroke-opacity:1"
       d="m 20.513544,19.669138 c -6.39483,-3.92801 -2.1122,-7.03685 -1.63703,-11.13178 1.85056,3.58329 4.66606,7.07243 1.63703,11.13178 z"
       id="path862"
       sodipodi:nodetypes="ccc" />
    <path
       style="fill:none;fill-opacity:1;stroke:#7f991f;stroke-width:0.79375;stroke-linecap:butt;stroke-linejoin:miter;stroke-miterlimit:4;stroke-dasharray:none;stroke-opacity:1"
       d="m 20.653854,20.043308 c 5.0602,3.80935 8.72198,4.31336 11.03823,1.63703 -3.21542,-2.35944 -6.47914,-4.53009 -11.03823,-1.63703 z"
       id="path864"
       sodipodi:nodetypes="ccc" />
    <path
       style="fill:none;fill-opacity:1;stroke:#7f991f;stroke-width:0.79375;stroke-linecap:butt;stroke-linejoin:miter;stroke-miterlimit:4;stroke-dasharray:none;stroke-opacity:1"
       d="m 13.619134,24.041158 c 5.29029,-1.99864 8.14656,0.80746 10.5894,5.12272 -3.83417,-0.79868 -8.33833,2.12143 -10.5894,-5.12272 z"
       id="path866"
       sodipodi:nodetypes="ccc" />
    <path
       style="fill:none;fill-opacity:1;stroke:#7f991f;stroke-width:0.79375;stroke-linecap:butt;stroke-linejoin:miter;stroke-miterlimit:4;stroke-dasharray:none;stroke-opacity:1"
       d="m 13.357394,23.925398 c -6.2567497,-4.1235 -5.6289997,-7.65689 -3.22726,-11.03823 3.17603,3.39559 4.65855,7.02003 3.22726,11.03823 z"
       id="path868"
       sodipodi:nodetypes="ccc" />
    <path
       style="fill:none;fill-opacity:1;stroke:#7f991f;stroke-width:0.79375;stroke-linecap:butt;stroke-linejoin:miter;stroke-miterlimit:4;stroke-dasharray:none;stroke-opacity:1"
       d="m 5.9041043,27.797108 c 5.0987497,-0.74415 7.3392097,2.9393 9.5112697,7.07298 -4.19805,-0.7355 -9.1268197,0.098 -9.5112697,-7.07298 z"
       id="path870"
       sodipodi:nodetypes="ccc" />
    <path
       style="fill:none;fill-opacity:1;stroke:#7f991f;stroke-width:0.79375;stroke-linecap:butt;stroke-linejoin:miter;stroke-miterlimit:4;stroke-dasharray:none;stroke-opacity:1"
       d="m 5.7803043,27.760718 c -6.42432,-1.61329 -4.13817,-6.53423 -3.13372,-10.7576 1.10763,3.55644 5.42718,5.61399 3.13372,10.7576 z"
       id="path872"
       sodipodi:nodetypes="ccc" />
  </g>
</svg>
