<?xml version="1.0" encoding="UTF-8" standalone="no"?>
<svg
   xmlns:dc="http://purl.org/dc/elements/1.1/"
   xmlns:cc="http://creativecommons.org/ns#"
   xmlns:rdf="http://www.w3.org/1999/02/22-rdf-syntax-ns#"
   xmlns:svg="http://www.w3.org/2000/svg"
   xmlns="http://www.w3.org/2000/svg"
   xmlns:sodipodi="http://sodipodi.sourceforge.net/DTD/sodipodi-0.dtd"
   xmlns:inkscape="http://www.inkscape.org/namespaces/inkscape"
   width="1420"
   height="295"
   viewBox="0 0 375.70831 78.052091"
   version="1.1"
   id="svg8"
   sodipodi:docname="secao_footer.svg"
   inkscape:version="1.0.2-2 (e86c870879, 2021-01-15)">
  <sodipodi:namedview
     pagecolor="#ffffff"
     bordercolor="#666666"
     borderopacity="1"
     objecttolerance="10"
     gridtolerance="10"
     guidetolerance="10"
     inkscape:pageopacity="0"
     inkscape:pageshadow="2"
     inkscape:window-width="1366"
     inkscape:window-height="705"
     id="namedview47"
     showgrid="false"
     inkscape:zoom="0.018160071"
     inkscape:cx="-18409.564"
     inkscape:cy="-4629.9556"
     inkscape:window-x="-8"
     inkscape:window-y="-8"
     inkscape:window-maximized="1"
     inkscape:current-layer="layer1"
     inkscape:document-rotation="0" />
  <defs
     id="defs2" />
  <metadata
     id="metadata5">
    <rdf:RDF>
      <cc:Work
         rdf:about="">
        <dc:format>image/svg+xml</dc:format>
        <dc:type
           rdf:resource="http://purl.org/dc/dcmitype/StillImage" />
        <dc:title />
      </cc:Work>
    </rdf:RDF>
  </metadata>
  <g
     id="layer1">
    <path
       style="fill:#8ba81c;fill-opacity:1;stroke:none;stroke-width:0.50281px;stroke-linecap:butt;stroke-linejoin:miter;stroke-opacity:1"
       d="M 0,78.543001 V 2.1001375 L 11.77154,3.0222154 C 18.743141,2.1755373 25.487406,2.4921228 32.862215,2.2940877 43.450253,3.8400061 55.718655,2.029893 64.752186,3.9565349 l 31.1764,-1.5238763 c 20.905954,1.1578689 31.695074,1.2040025 48.526734,0.3797861 l 17.38141,-1.2917315 c 12.74958,1.5079269 5.17544,1.0250135 16.58575,0.9177492 l 22.79729,-1.191194 c 18.6629,0.9612135 12.9848,0.5223309 24.96175,0.9621109 l 7.77784,-1.47634377 11.64514,1.03722507 6.74789,-0.96224657 19.85692,0.39884507 c 6.99604,0.708588 14.30315,0.3759743 20.60776,-0.60347856 l 21.58114,1.01533606 5.86686,-0.81428759 17.06314,1.03218799 c 5.22674,-0.88717617 7.4214,0.4200138 12.50724,-1.00126347 8.64003,-0.080287 17.2523,0.33927427 25.87288,0.82211137 V 78.100328 H 0"
       id="path873"
       sodipodi:nodetypes="ccccccccccccccccccccccc" />
  </g>
</svg>
