<?xml version="1.0" encoding="UTF-8" standalone="no"?>
<svg
   xmlns:dc="http://purl.org/dc/elements/1.1/"
   xmlns:cc="http://creativecommons.org/ns#"
   xmlns:rdf="http://www.w3.org/1999/02/22-rdf-syntax-ns#"
   xmlns:svg="http://www.w3.org/2000/svg"
   xmlns="http://www.w3.org/2000/svg"
   xmlns:sodipodi="http://sodipodi.sourceforge.net/DTD/sodipodi-0.dtd"
   xmlns:inkscape="http://www.inkscape.org/namespaces/inkscape"
   width="1420"
   height="636"
   viewBox="0 0 375.70831 168.27502"
   version="1.1"
   id="svg8"
   inkscape:version="1.0.2-2 (e86c870879, 2021-01-15)"
   sodipodi:docname="secao_contato.svg">
  <defs
     id="defs2" />
  <sodipodi:namedview
     id="base"
     pagecolor="#ffffff"
     bordercolor="#666666"
     borderopacity="1.0"
     inkscape:pageopacity="0.0"
     inkscape:pageshadow="2"
     inkscape:zoom="1.5257572"
     inkscape:cx="1235.1083"
     inkscape:cy="82.327966"
     inkscape:document-units="mm"
     inkscape:current-layer="layer1"
     inkscape:document-rotation="0"
     showgrid="false"
     inkscape:window-width="1350"
     inkscape:window-height="728"
     inkscape:window-x="0"
     inkscape:window-y="0"
     inkscape:window-maximized="0"
     units="px"
     inkscape:snap-global="true">
    <inkscape:grid
       type="xygrid"
       id="grid898" />
  </sodipodi:namedview>
  <metadata
     id="metadata5">
    <rdf:RDF>
      <cc:Work
         rdf:about="">
        <dc:format>image/svg+xml</dc:format>
        <dc:type
           rdf:resource="http://purl.org/dc/dcmitype/StillImage" />
        <dc:title />
      </cc:Work>
    </rdf:RDF>
  </metadata>
  <g
     inkscape:label="Layer 1"
     inkscape:groupmode="layer"
     id="layer1">
    <path
       style="fill:#f1ebe8;fill-opacity:1;stroke:none;stroke-width:0.742201px;stroke-linecap:butt;stroke-linejoin:miter;stroke-opacity:1"
       d="M 0.04072299,166.90155 0,1.3740861 11.909939,2.3665667 c 7.28087,-1.1903972 15.257486,0.295842 21.793936,-0.1487462 11.173294,0.058062 22.79449,0.9311214 32.971239,-0.5633844 13.866822,-0.6126337 27.266032,-0.6517826 41.061616,0.2378451 l 11.02095,-0.8238244 c 9.52909,-0.36678826 16.83498,0.1468852 26.10577,0.8918336 L 160.2033,0.13569187 c 5.89933,-0.008032 12.3496,0.56154987 17.65732,1.78175013 10.36098,-0.4253453 20.70968,-0.8459273 31.07731,-0.7347328 15.68497,-0.055615 29.2388,-1.75412167 43.56248,-0.32989286 L 271.7877,0.13569227 c 2.97047,0.76325697 6.39957,0.86432923 8.82865,1.92979213 v 0 l 9.50308,-1.29100004 3.18812,-0.0417578 c 8.64391,0.20571992 17.22036,0.28552174 25.81154,-0.59703558 11.05861,0.7878043 21.18028,2.29428262 30.77767,1.47033922 l 15.57279,-0.2149584 10.30009,2.0062465 0.12262,156.6748917 -11.37223,5.32574 -31.92724,-2.09211 -28.89529,2.02153 -12.59791,-0.75818 -6.32904,1.93748 -13.54035,-1.76571 -38.17826,0.92247 -6.7208,-1.08064 -8.00375,1.09807 -8.95882,-2.23296 -10.17217,0.8682 -21.32531,1.23169 -15.27301,-1.61307 -21.76426,1.27374 -7.41297,-1.01062 -8.28244,1.71012 -16.91849,-1.37705 -12.954432,-0.91373 -19.335806,3.00337 -7.543473,-1.24733 -16.648321,1.35313 -5.722823,-0.82177 -6.589601,0.90566 -2.167882,-1.34778 -6.069347,1.45709 -8.930224,1.2824 -11.705325,-0.51131 -8.7357826,0.66048 -1.75318912,-1.00493"
       id="path873"
       sodipodi:nodetypes="ccccccccccccccccccccccccccccccccccccccccccccccccccc" />
  </g>
</svg>
