<?xml version="1.0" encoding="UTF-8" standalone="no"?>
<svg
   xmlns:dc="http://purl.org/dc/elements/1.1/"
   xmlns:cc="http://creativecommons.org/ns#"
   xmlns:rdf="http://www.w3.org/1999/02/22-rdf-syntax-ns#"
   xmlns:svg="http://www.w3.org/2000/svg"
   xmlns="http://www.w3.org/2000/svg"
   xmlns:sodipodi="http://sodipodi.sourceforge.net/DTD/sodipodi-0.dtd"
   xmlns:inkscape="http://www.inkscape.org/namespaces/inkscape"
   width="1420"
   height="86"
   viewBox="0 0 375.70831 22.754169"
   version="1.1"
   id="svg8"
   inkscape:version="1.0.2-2 (e86c870879, 2021-01-15)"
   sodipodi:docname="secao_alerta.svg">
  <defs
     id="defs2" />
  <sodipodi:namedview
     id="base"
     pagecolor="#ffffff"
     bordercolor="#666666"
     borderopacity="1.0"
     inkscape:pageopacity="0.0"
     inkscape:pageshadow="2"
     inkscape:zoom="0.067429578"
     inkscape:cx="-528.21266"
     inkscape:cy="2117.1252"
     inkscape:document-units="mm"
     inkscape:current-layer="layer1"
     inkscape:document-rotation="0"
     showgrid="false"
     inkscape:window-width="1350"
     inkscape:window-height="728"
     inkscape:window-x="0"
     inkscape:window-y="0"
     inkscape:window-maximized="0"
     units="px"
     inkscape:snap-global="true">
    <inkscape:grid
       type="xygrid"
       id="grid898" />
  </sodipodi:namedview>
  <metadata
     id="metadata5">
    <rdf:RDF>
      <cc:Work
         rdf:about="">
        <dc:format>image/svg+xml</dc:format>
        <dc:type
           rdf:resource="http://purl.org/dc/dcmitype/StillImage" />
        <dc:title />
      </cc:Work>
    </rdf:RDF>
  </metadata>
  <g
     inkscape:label="Layer 1"
     inkscape:groupmode="layer"
     id="layer1">
    <path
       style="fill:#f1ebe8;fill-opacity:1;stroke:none;stroke-width:0.173869px;stroke-linecap:butt;stroke-linejoin:miter;stroke-opacity:1"
       d="M -7.3122813e-5,0.33411073 25.352923,0.95415748 57.642844,0.21663592 77.309235,0.81619847 90.581651,0.33411073 133.81385,1.0098175 l 18.52808,-0.73444429 22.10293,0.11747489 12.52243,0.50408412 7.57749,-0.43598101 11.17713,0.62274059 29.48173,-0.60869166 45.29088,-0.31710148 42.53857,0.79157577 15.10437,-0.67410107 9.62199,0.29088605 16.6261,-0.36536058 7.53549,0.48003443 3.78722,-0.34682233 V 22.654305 l -16.14962,-1.14616 -28.61476,0.791231 -11.88238,-0.64573 -26.43086,0.420925 -14.13886,-1.198749 -11.24793,1.564644 -11.18072,-0.159752 -12.8319,0.147649 -23.07081,-0.99795 -57.26585,1.053108 -28.69218,-1.117204 -33.67662,1.324342 L 84.939006,21.709879 70.319745,21.49802 47.83384,22.28677 36.821086,21.015472 28.302136,22.158749 22.172153,20.152926 12.763849,21.4129 4.6262749,21.864822 -7.3122812e-5,22.066938 Z"
       id="path900"
       sodipodi:nodetypes="cccccccccccccccccccccccccccccccccccccccccc" />
  </g>
</svg>
